<svg xmlns="http://www.w3.org/2000/svg" viewBox="0 0 320 32"><g transform="translate(-29.2 -52.7)"><path d="M39.8 57.4h2.5v18h-2.5zm-3.2 18.2q-1.4 0-2.4-.6t-1.5-1.8Q32 72 32 70.4v-2.9q0-1.6.6-2.8.5-1.2 1.4-1.8 1-.6 2.4-.6 1.1 0 2 .6 1 .6 1.6 1.7l-.3 2.6q0-.8-.3-1.4-.3-.6-.9-.9-.5-.3-1.3-.3-1.3 0-2 .8-.6.8-.6 2.2v2.8q0 1.4.6 2.1.7.8 2 .8.8 0 1.3-.3.6-.4 1-1 .2-.5.2-1.4l.2 2.7q-.4 1-1.3 1.6-.8.7-2.1.7zm16.8-8.4q0-1.2-.7-2-.6-.6-1.9-.6l-1.5.2q-.7.2-1.3.6l-1.8-1.2q.7-.9 1.9-1.4 1.2-.5 2.7-.5 1.6 0 2.7.6t1.7 1.6q.6 1.1.6 2.6v8.3h-2.4Zm-3.1 8.3q-2.4 0-3.6-1-1.1-1-1.1-3 0-1.8 1-2.8 1.1-1 3.3-1h3.6l.2 2h-3.8q-1 0-1.5.5t-.5 1.4q0 1 .7 1.4.6.5 2 .5t2.1-.3q.7-.3.7-1l.3 1.8-.8.9-1.2.5-1.4.1zm9.4-13h2.5v12.9h-2.5zm7.7 5q0-1.3-.7-2-.7-.8-2-.8-1.2 0-1.9.7-.6.6-.6 1.8l-.3-2.4q.6-1.2 1.6-1.8 1-.7 2-.7 2.2 0 3.3 1.4 1.2 1.4 1.2 3.9v7.8h-2.6zm6.4-10.1h2.5v2.5h-2.5Zm0 5.1h2.5v12.9h-2.5Zm11.6 13q-1.8 0-3-.6-1.3-.7-2-2-.6-1.3-.6-3.1v-1.5q0-1.9.6-3.2.7-1.4 1.9-2 1.2-.8 2.9-.8 1.6 0 2.7.8 1.2.8 1.8 2.4.6 1.5.6 3.6v.9h-8.7v-2H88q-.1-1.6-.8-2.5-.7-.9-1.9-.9-1.4 0-2.2 1-.8.9-.8 2.6v1.6q0 1.6.8 2.5.9.8 2.4.8.8 0 1.5-.3.8-.3 1.4-.8l1.6 1.6q-1 1-2 1.4-1.3.5-2.5.5zM96.3 72q0 .5.2.8.2.2.5.2h1.2v2.4h-1.4q-1.5 0-2.3-.9-.8-.9-.8-2.5V57.4h2.6zm13.5 3.5q-2.2 0-3.3-1.3-1-1.4-1-4.2v-2.1q0-2.8 1.2-4.2 1.2-1.4 3.7-1.4t3.7 1.4q1.2 1.4 1.2 4.2v4l-1.8.7q-.2 1.5-1.2 2.2-.9.7-2.5.7zm.6-2.2q1.2 0 1.9-.8.6-.8.6-2.4v-2.4q0-1.5-.6-2.3-.7-.8-2-.8-2.5 0-2.5 3.2V70q0 1.6.7 2.4.6.8 1.9.8zm0 6.8q-3.1 0-5.3-1-2-1-3.1-3.1-1-2-1-5.1v-3.4q0-3.3 1-5.5 1.1-2.3 3.2-3.4 2-1 5.2-1 3.1 0 5.2 1 2 1.2 3.1 3.4t1.1 5.5v3.9q0 2.1-.9 3.1t-2.6 1q-1.8 0-2.7-1-.9-.9-.9-2.8l2.6-.1q0 .9.3 1.3.2.5.8.5.6 0 .8-.4.3-.4.3-1.4v-4q0-2.7-.8-4.4-.8-1.8-2.4-2.6-1.6-.9-3.9-.9-2.4 0-4 .9-1.5.8-2.3 2.6-.8 1.7-.9 4.3V71q0 2.3.8 3.9.8 1.5 2.4 2.3 1.6.8 4 .8h3.7v2zM131 57.4h2.5v18h-2.6zm-3.3 18.2q-1.4 0-2.4-.6t-1.5-1.8q-.5-1.2-.5-2.8v-2.9q0-1.6.5-2.8.5-1.2 1.4-1.8 1-.6 2.4-.6 1.1 0 2 .6 1 .6 1.6 1.7l-.3 2.6q0-.8-.3-1.4-.3-.6-.8-.9-.6-.3-1.4-.3-1.2 0-2 .8-.6.8-.6 2.2v2.8q0 1.4.7 2.1.7.8 1.9.8.8 0 1.4-.3.5-.4.8-1 .3-.5.3-1.4l.2 2.7q-.4 1-1.3 1.6-.8.7-2.1.7zm16.8-8.4q0-1.2-.6-2-.7-.6-2-.6l-1.5.2q-.7.2-1.3.6l-1.8-1.2q.7-.9 2-1.4 1.1-.5 2.6-.5 1.6 0 2.7.6t1.7 1.6q.6 1.1.6 2.6v8.3h-2.4Zm-3.1 8.3q-2.4 0-3.6-1-1.1-1-1.1-3 0-1.8 1-2.8 1.1-1 3.3-1h3.6l.2 2H141q-1 0-1.5.5t-.5 1.4q0 1 .7 1.4.6.5 2 .5t2.1-.3q.7-.3.7-1l.3 1.8q-.3.5-.8.9l-1.2.5-1.4.1zm9.4-13h2.5v12.9h-2.5zm7.8 5q0-1.3-.7-2-.7-.8-2-.8t-2 .7q-.6.6-.6 1.8l-.3-2.4q.6-1.2 1.6-1.8 1-.7 2.1-.7 2.1 0 3.2 1.4 1.2 1.4 1.2 3.9v7.8h-2.5zm6.4-10.1h2.4v2.5H165zm0 5.1h2.4v12.9H165zm11.5 13q-1.7 0-3-.6-1.3-.7-2-2-.6-1.3-.6-3.1v-1.5q0-1.9.6-3.2.7-1.4 1.9-2 1.2-.8 3-.8 1.5 0 2.7.8 1.1.8 1.7 2.4.6 1.5.6 3.6v.9h-8.7v-2h6.3q-.1-1.6-.8-2.5-.7-.9-1.9-.9-1.4 0-2.2 1-.8.9-.8 2.6v1.6q0 1.6.8 2.5.9.8 2.4.8.8 0 1.6-.3.7-.3 1.3-.8l1.7 1.6q-1 1-2.2 1.4-1.2.5-2.4.5zm10.9-3.5q0 .5.2.8.2.2.6.2h1.2v2.4h-1.5q-1.5 0-2.3-.9-.7-.9-.7-2.5V57.4h2.5zm3.6-9.5h2.7l2.3 9.2 3.2-9.2h1.8l3.2 9.2 2.2-9.2h2.7l-4 12.9h-1.9l-3.1-9-3.2 9H195zm28 4.7q0-1.2-.6-2-.7-.6-2-.6l-1.5.2q-.7.2-1.3.6l-1.8-1.2q.7-.9 2-1.4 1.1-.5 2.6-.5 1.6 0 2.7.6 1.2.6 1.7 1.6.6 1.1.6 2.6v8.3H219zm-3.1 8.3q-2.4 0-3.6-1-1.1-1-1.1-3 0-1.8 1-2.8 1.1-1 3.3-1h3.6l.2 2h-3.8q-1 0-1.5.5t-.5 1.4q0 1 .7 1.4.6.5 2 .5t2.1-.3q.7-.3.7-1l.3 1.8q-.3.5-.8.9l-1.2.5-1.4.1zm14.6 0q-1.8 0-3-.6-1.3-.7-2-2-.6-1.3-.6-3.1v-1.5q0-1.9.6-3.2.7-1.4 1.9-2 1.2-.8 3-.8 1.5 0 2.7.8 1 .8 1.7 2.4.6 1.5.6 3.6v.9h-8.7v-2h6.3q-.1-1.6-.8-2.5-.7-.9-1.9-.9-1.4 0-2.2 1-.8.9-.8 2.6v1.6q0 1.6.8 2.5.9.8 2.4.8.8 0 1.6-.3.7-.3 1.3-.8l1.7 1.6q-1 1-2.2 1.4-1.2.5-2.4.5zm13.5 0q-1.7 0-3-.6-1.2-.7-1.9-2-.6-1.2-.6-3v-2q0-1.8.6-3 .7-1.3 2-2 1.2-.6 3-.6 1 0 1.8.3 1 .2 1.6.7.7.4 1.2 1l-1.8 1.7q-.6-.6-1.3-1-.7-.3-1.5-.3-1.5 0-2.3.8-.8.9-.8 2.3V70q0 1.5.8 2.3.8.8 2.3.8.8 0 1.5-.3.7-.4 1.3-1l1.8 1.7q-.5.7-1.2 1.1-.7.5-1.6.7-.9.2-1.9.2zm7.5-18.1h2.5v18h-2.5zm7.8 10.2q0-1.4-.7-2.1-.7-.8-2-.8t-2 .7q-.6.6-.6 1.8l-.3-2.5q.6-1.1 1.6-1.7 1-.7 2.1-.7 2.1 0 3.2 1.4 1.2 1.4 1.2 3.9v7.8h-2.5zm9.7 7.8q-1.6 0-2.3-.8-.7-.9-.7-2.6V58.8h2.5V72q0 .5.2.8.2.2.5.2h1.2v2.4zm-4.4-12.9h5.8v2.3h-5.8zm14.5 13q-1.7 0-3-.6-1.3-.7-2-2-.6-1.3-.6-3.1v-1.5q0-1.9.6-3.2.7-1.4 1.9-2 1.2-.8 3-.8 1.5 0 2.7.8 1.1.8 1.7 2.4.6 1.5.6 3.6v.9h-8.7v-2h6.3q-.1-1.6-.8-2.5-.7-.9-1.9-.9-1.4 0-2.2 1-.8.9-.8 2.6v1.6q0 1.6.9 2.5.8.8 2.3.8.8 0 1.6-.3.7-.3 1.3-.8l1.7 1.6q-1 1-2.2 1.4-1.2.5-2.4.5zm8.4-13h2.5v12.9h-2.5zm7 3-.8-.6q-.5-.2-1.2-.2-1.2 0-1.9.7-.6.7-.6 1.8l-.3-2.4q.6-1.2 1.6-1.8 1-.7 2-.7t1.6.3q.7.2 1.3.7zm1.7 7.2h2.7v2.7h-2.7zm10.9 2.8q-1.8 0-3-.6-1.2-.7-1.9-2-.7-1.2-.7-3v-2q0-1.8.7-3 .7-1.3 1.9-2 1.2-.6 3-.6 1 0 1.9.3.9.2 1.6.7.7.4 1.1 1L310 66q-.5-.6-1.2-1-.8-.3-1.6-.3-1.4 0-2.2.8-.8.9-.8 2.3V70q0 1.5.8 2.3.8.8 2.2.8.8 0 1.6-.3.7-.4 1.2-1l1.8 1.7q-.4.7-1.1 1.1-.7.5-1.6.7l-1.9.2zm12.4 0q-1.7 0-2.9-.6-1.2-.7-1.8-2-.6-1.2-.6-3v-2q0-1.8.6-3 .6-1.3 1.8-2 1.2-.6 2.9-.6 1.6 0 2.8.7 1.2.6 1.8 1.9.7 1.2.7 3v2q0 1.8-.7 3.1-.6 1.2-1.8 1.9-1.2.6-2.8.6zm0-2.4q1.3 0 2-.8t.7-2.3v-2.1q0-1.5-.7-2.4-.7-.8-2-.8-1.4 0-2.1.8-.7.9-.7 2.4v2q0 1.6.7 2.4.7.8 2 .8zm24.2-5.5q0-1.4-.7-2.1-.7-.8-2-.8-1.2 0-1.8.7-.7.8-.7 2L338 65q.6-1.3 1.6-2t2.2-.7q1.4 0 2.4.7 1 .6 1.5 1.7.5 1.2.5 2.9v7.8h-2.5zm-15.4-5h2.6v12.8h-2.6zm7.7 5q0-1.4-.7-2.1-.6-.8-1.9-.8-1.2 0-1.9.7-.6.6-.6 1.8l-.3-2.4q.6-1.2 1.5-1.8 1-.7 2.2-.7 1.3 0 2.3.7 1 .6 1.4 1.7.5 1.2.5 2.9v7.8H336z" aria-label="daniel@danielwaechter.com" font-family="Bahnschrift" font-size="25.3" style="-inkscape-font-specification:Bahnschrift"/></g></svg>